<svg width="166" height="49" viewBox="0 0 166 49" fill="none" xmlns="http://www.w3.org/2000/svg">
<path d="M6.34179 30.1553C9.12488 30.1553 12.1361 28.6041 14.5542 25.2735C17.5654 21.1217 23.1772 10.7193 24.7284 7.25189C25.4584 5.70066 25.7322 4.33193 25.7322 3.3282C25.7322 2.64383 25.5497 1.95946 25.2759 1.4576C24.7284 0.636357 23.9984 0.453859 23.4053 1.41197C20.9416 5.33567 15.9685 14.2324 13.5048 19.023C10.813 24.3154 7.80177 27.9197 5.47493 27.9197C4.47119 27.9197 3.78682 27.281 3.78682 25.7754C3.78682 25.1823 3.9237 24.4523 4.10619 23.6311C5.33805 18.8861 9.71799 12.0881 11.908 8.02751C12.9573 6.06566 13.3223 4.60568 13.3223 3.55632C13.3223 2.73508 13.0942 2.09634 12.7292 1.50322C12.1817 0.681981 11.4517 0.545106 10.813 1.4576C6.70679 7.75376 1.55123 16.2855 0.319371 21.2586C0.0912488 22.2623 0 23.1292 0 23.996C0 27.1898 1.77935 28.8779 3.69558 29.6535C4.47119 29.9728 5.33805 30.1553 6.34179 30.1553Z" fill="white"/>
<path d="M26.8902 11.3581C26.434 10.5368 25.7496 10.4912 25.1565 11.3581C22.3278 15.6012 18.8147 21.9886 17.9478 24.5435C17.6741 25.456 17.5372 26.2316 17.5372 26.916C17.5372 28.011 17.9022 28.7866 18.541 29.4254C19.271 30.1553 19.8641 29.8816 20.1834 29.1516C22.054 25.0454 24.1071 20.5742 26.6165 17.928C29.1258 15.0993 31.3614 13.8218 31.772 13.8218C32.0914 13.8218 31.3614 15.008 30.4033 16.5136C28.624 19.3424 26.5252 23.5398 26.5252 26.0035C26.5252 28.376 27.8483 29.9272 30.9052 29.9272C33.6426 29.9272 36.9732 27.5091 38.2507 24.9998C38.8894 23.7679 38.8438 22.3536 38.4788 21.8061C38.0682 21.1673 37.4295 21.1217 36.9732 21.9886C35.3307 25.0454 32.9583 28.011 31.407 28.011C30.8139 28.011 30.4946 27.4179 30.4946 26.4598C30.4946 24.7717 32.0458 21.7605 33.5058 19.4336C34.9657 16.8786 35.787 15.4187 35.787 14.4149C35.787 12.6812 34.5551 11.0843 33.232 11.0843C31.5895 11.0843 29.3996 12.5899 27.4377 14.4149C27.4833 14.1412 27.4833 13.8218 27.4833 13.5024C27.4833 12.7724 27.3008 12.0425 26.8902 11.3581Z" fill="white"/>
<path d="M41.7353 20.0708C41.7353 25.8937 46.003 30.0167 52.5854 30.0167C59.0954 30.0167 63.3632 25.8937 63.3632 20.0708V3.72335H57.0339V20.0708C57.0339 22.7833 55.2618 24.23 52.5492 24.23C49.8367 24.23 48.0645 22.7833 48.0645 20.0708V3.72335H41.7353V20.0708Z" fill="white"/>
<path d="M65.3557 26.3277C65.3557 26.3277 68.7192 30.0167 74.7953 30.0167C80.6182 30.0167 83.9094 26.2915 83.9094 21.9877C83.9094 13.8139 72.2636 14.3926 72.2636 11.1376C72.2636 9.69089 73.7103 9.11222 75.0123 9.11222C78.1227 9.11222 80.7267 11.3907 80.7267 11.3907L83.403 6.21887C83.403 6.21887 80.6543 3.28934 75.0846 3.28934C69.9489 3.28934 65.9344 6.43587 65.9344 11.2099C65.9344 19.1666 77.5801 19.0581 77.5801 22.1323C77.5801 23.6875 76.1696 24.1938 74.8676 24.1938C71.6126 24.1938 68.6831 21.5175 68.6831 21.5175L65.3557 26.3277Z" fill="white"/>
<path d="M100.983 29.5827H107.493L98.7045 3.72335H92.0498L83.2612 29.5827H89.7712L91.3264 24.1577H99.3916L100.983 29.5827ZM95.4133 9.61856C95.4133 9.61856 95.992 12.4396 96.4621 14.0671L97.9088 19.0943H92.8093L94.2921 14.0671C94.7623 12.4396 95.3409 9.61856 95.3409 9.61856H95.4133Z" fill="white"/>
<path d="M108.582 29.5827H118.094C123.23 29.5827 127.931 27.5212 127.931 21.8792C127.931 19.6006 126.846 16.9604 123.881 16.0563V15.9839C125.834 14.8628 126.882 12.6566 126.882 10.4866C126.882 6.03803 123.266 3.72335 118.094 3.72335H108.582V29.5827ZM114.911 13.7416V9.14839H118.058C119.758 9.14839 120.445 10.1611 120.445 11.3546C120.445 12.5842 119.758 13.7416 118.166 13.7416H114.911ZM114.911 24.1577V18.805H118.745C120.589 18.805 121.457 19.9985 121.457 21.4452C121.457 22.8918 120.553 24.1577 118.709 24.1577H114.911Z" fill="white"/>
<path d="M130.614 29.5827H147.504V24.1577H136.943V3.72335H130.614V29.5827Z" fill="white"/>
<path d="M149.185 29.5827H165.894V24.1577H155.514V19.2751H163.399V13.8501H155.514V9.14839H165.388V3.72335H149.185V29.5827Z" fill="white"/>
<path d="M86.8331 35.572C88.7713 35.572 90.1799 35.9513 91.0587 36.7097C91.9496 37.4561 92.3951 38.6119 92.3951 40.1769C92.3951 41.7299 91.9376 42.8676 91.0226 43.5899C90.1197 44.3123 88.7352 44.6734 86.8692 44.6734H85.1898V48.1948H82.3727V35.572H86.8331ZM87.0859 42.2356C88.0249 42.2356 88.663 42.049 89.0001 41.6758C89.3372 41.2905 89.5057 40.7367 89.5057 40.0144C89.5057 39.28 89.283 38.7624 88.8376 38.4614C88.4042 38.1484 87.724 37.9919 86.797 37.9919H85.1898V42.2356H87.0859Z" fill="#FD9CB9"/>
<path d="M103.533 41.8202C103.533 40.6886 103.172 39.7255 102.449 38.9309C101.727 38.1363 100.836 37.739 99.7765 37.739C98.7292 37.739 97.8443 38.1363 97.122 38.9309C96.3996 39.7255 96.0385 40.6886 96.0385 41.8202C96.0385 42.9398 96.3996 43.8969 97.122 44.6915C97.8443 45.474 98.7292 45.8653 99.7765 45.8653C100.836 45.8653 101.727 45.474 102.449 44.6915C103.172 43.8969 103.533 42.9398 103.533 41.8202ZM104.49 46.4612C103.214 47.7012 101.643 48.3212 99.7765 48.3212C97.9105 48.3212 96.3394 47.7012 95.0633 46.4612C93.7872 45.2092 93.1491 43.6562 93.1491 41.8022C93.1491 39.9482 93.7872 38.4012 95.0633 37.1612C96.3394 35.9091 97.9105 35.2831 99.7765 35.2831C101.643 35.2831 103.214 35.9091 104.49 37.1612C105.766 38.4012 106.404 39.9482 106.404 41.8022C106.404 43.6562 105.766 45.2092 104.49 46.4612Z" fill="#FD9CB9"/>
<path d="M112.529 35.572C114.78 35.572 116.508 36.1258 117.712 37.2334C118.915 38.3289 119.517 39.8579 119.517 41.8202C119.517 43.7826 118.927 45.3356 117.748 46.4793C116.58 47.623 114.792 48.1948 112.384 48.1948H108.068V35.572H112.529ZM112.673 45.7028C113.961 45.7028 114.949 45.3777 115.635 44.7276C116.333 44.0775 116.682 43.1325 116.682 41.8925C116.682 40.6525 116.333 39.7014 115.635 39.0392C114.949 38.3651 113.889 38.028 112.457 38.028H110.886V45.7028H112.673Z" fill="#FD9CB9"/>
<path d="M127.022 45.7028C128.406 45.7028 129.538 45.155 130.417 44.0595L132.222 45.9195C130.79 47.5327 129.098 48.3393 127.148 48.3393C125.21 48.3393 123.609 47.7253 122.345 46.4973C121.092 45.2694 120.466 43.7224 120.466 41.8563C120.466 39.9783 121.105 38.4132 122.381 37.1612C123.669 35.9091 125.24 35.2831 127.094 35.2831C129.165 35.2831 130.898 36.0717 132.295 37.6488L130.543 39.6352C129.652 38.5276 128.545 37.9738 127.22 37.9738C126.161 37.9738 125.252 38.3229 124.493 39.0212C123.747 39.7074 123.374 40.6404 123.374 41.8202C123.374 42.988 123.729 43.927 124.439 44.6373C125.15 45.3476 126.01 45.7028 127.022 45.7028Z" fill="#FD9CB9"/>
<path d="M142.634 48.1948L141.46 45.468H136.169L134.995 48.1948H131.997L137.451 35.572H140.178L145.631 48.1948H142.634ZM138.823 39.3282L137.234 42.994H140.395L138.823 39.3282Z" fill="#FD9CB9"/>
<path d="M150.349 37.7571C149.879 37.7571 149.506 37.8715 149.229 38.1002C148.964 38.3169 148.832 38.6119 148.832 38.9851C148.832 39.3462 148.995 39.6352 149.32 39.8519C149.657 40.0686 150.421 40.3274 151.613 40.6284C152.817 40.9173 153.75 41.3567 154.412 41.9466C155.074 42.5365 155.405 43.3973 155.405 44.529C155.405 45.6606 154.978 46.5816 154.123 47.2919C153.28 47.9902 152.167 48.3393 150.782 48.3393C148.784 48.3393 146.984 47.5989 145.383 46.1181L147.062 44.0595C148.423 45.2513 149.681 45.8472 150.836 45.8472C151.354 45.8472 151.757 45.7389 152.046 45.5222C152.347 45.2934 152.498 44.9925 152.498 44.6193C152.498 44.234 152.341 43.9331 152.028 43.7164C151.715 43.4876 151.095 43.2589 150.168 43.0301C148.7 42.681 147.622 42.2296 146.936 41.6758C146.262 41.1099 145.925 40.2311 145.925 39.0392C145.925 37.8354 146.352 36.9084 147.207 36.2583C148.074 35.6082 149.151 35.2831 150.439 35.2831C151.282 35.2831 152.125 35.4276 152.967 35.7165C153.81 36.0054 154.544 36.4148 155.17 36.9445L153.744 39.0031C152.648 38.1724 151.517 37.7571 150.349 37.7571Z" fill="#FD9CB9"/>
<path d="M162.319 38.0099V48.1948H159.502V38.0099H155.926V35.572H165.894V38.0099H162.319Z" fill="#FD9CB9"/>
</svg>
