<svg width="166" height="49" viewBox="0 0 166 49" fill="none" xmlns="http://www.w3.org/2000/svg">
<path d="M6.44763 30.0138C9.23071 30.0138 12.2419 28.4625 14.66 25.132C17.6712 20.9801 23.283 10.5778 24.8343 7.11032C25.5642 5.55909 25.838 4.19036 25.838 3.18663C25.838 2.50226 25.6555 1.81789 25.3817 1.31603C24.8343 0.494786 24.1043 0.312288 23.5111 1.2704C21.0474 5.1941 16.0744 14.0909 13.6107 18.8814C10.9188 24.1738 7.90761 27.7782 5.58076 27.7782C4.57703 27.7782 3.89266 27.1394 3.89266 25.6338C3.89266 25.0407 4.02953 24.3107 4.21203 23.4895C5.44389 18.7445 9.82383 11.9465 12.0138 7.88594C13.0632 5.92409 13.4282 4.46411 13.4282 3.41475C13.4282 2.59351 13.2 1.95477 12.835 1.36165C12.2875 0.54041 11.5576 0.403535 10.9188 1.31603C6.81262 7.61219 1.65706 16.144 0.425206 21.117C0.197084 22.1208 0.105835 22.9876 0.105835 23.8545C0.105835 27.0482 1.88519 28.7363 3.80141 29.5119C4.57703 29.8313 5.44389 30.0138 6.44763 30.0138Z" fill="#222840"/>
<path d="M26.9961 11.2165C26.5398 10.3953 25.8555 10.3497 25.2623 11.2165C22.4336 15.4596 18.9205 21.847 18.0537 24.402C17.7799 25.3145 17.6431 26.0901 17.6431 26.7744C17.6431 27.8694 18.0081 28.645 18.6468 29.2838C19.3768 30.0138 19.9699 29.74 20.2893 29.01C22.1599 24.9038 24.213 20.4326 26.7223 17.7864C29.2317 14.9577 31.4673 13.6802 31.8779 13.6802C32.1972 13.6802 31.4673 14.8665 30.5091 16.3721C28.7298 19.2008 26.6311 23.3982 26.6311 25.8619C26.6311 28.2344 27.9542 29.7856 31.011 29.7856C33.7485 29.7856 37.0791 27.3676 38.3565 24.8582C38.9953 23.6264 38.9497 22.212 38.5847 21.6645C38.174 21.0258 37.5353 20.9801 37.0791 21.847C35.4366 24.9038 33.0641 27.8694 31.5129 27.8694C30.9198 27.8694 30.6004 27.2763 30.6004 26.3182C30.6004 24.6301 32.1516 21.6189 33.6116 19.292C35.0716 16.7371 35.8928 15.2771 35.8928 14.2734C35.8928 12.5396 34.661 10.9428 33.3379 10.9428C31.6954 10.9428 29.5054 12.4484 27.5436 14.2734C27.5892 13.9996 27.5892 13.6802 27.5892 13.3609C27.5892 12.6309 27.4067 11.9009 26.9961 11.2165Z" fill="#222840"/>
<path d="M41.8412 19.9292C41.8412 25.7521 46.1089 29.8751 52.6912 29.8751C59.2013 29.8751 63.469 25.7521 63.469 19.9292V3.58177H57.1398V19.9292C57.1398 22.6418 55.3676 24.0884 52.6551 24.0884C49.9425 24.0884 48.1704 22.6418 48.1704 19.9292V3.58177H41.8412V19.9292Z" fill="#222840"/>
<path d="M65.4616 26.1861C65.4616 26.1861 68.8251 29.8751 74.9011 29.8751C80.724 29.8751 84.0152 26.15 84.0152 21.8461C84.0152 13.6724 72.3694 14.251 72.3694 10.996C72.3694 9.54932 73.8161 8.97065 75.1181 8.97065C78.2285 8.97065 80.8325 11.2492 80.8325 11.2492L83.5089 6.07729C83.5089 6.07729 80.7602 3.14777 75.1905 3.14777C70.0548 3.14777 66.0402 6.2943 66.0402 11.0683C66.0402 19.0251 77.686 18.9166 77.686 21.9908C77.686 23.5459 76.2755 24.0523 74.9735 24.0523C71.7184 24.0523 68.7889 21.3759 68.7889 21.3759L65.4616 26.1861Z" fill="#222840"/>
<path d="M101.089 29.4411H107.599L98.8103 3.58177H92.1556L83.367 29.4411H89.8771L91.4323 24.0161H99.4975L101.089 29.4411ZM95.5191 9.47699C95.5191 9.47699 96.0978 12.298 96.568 13.9255L98.0146 18.9527H92.9151L94.3979 13.9255C94.8681 12.298 95.4468 9.47699 95.4468 9.47699H95.5191Z" fill="#222840"/>
<path d="M108.688 29.4411H118.2C123.335 29.4411 128.037 27.3796 128.037 21.7376C128.037 19.4591 126.952 16.8189 123.986 15.9147V15.8424C125.939 14.7212 126.988 12.515 126.988 10.345C126.988 5.89646 123.372 3.58177 118.2 3.58177H108.688V29.4411ZM115.017 13.6V9.00682H118.164C119.863 9.00682 120.551 10.0195 120.551 11.213C120.551 12.4427 119.863 13.6 118.272 13.6H115.017ZM115.017 24.0161V18.6634H118.851C120.695 18.6634 121.563 19.8569 121.563 21.3036C121.563 22.7503 120.659 24.0161 118.815 24.0161H115.017Z" fill="#222840"/>
<path d="M130.72 29.4411H147.61V24.0161H137.049V3.58177H130.72V29.4411Z" fill="#222840"/>
<path d="M149.291 29.4411H166V24.0161H155.62V19.1336H163.504V13.7085H155.62V9.00682H165.494V3.58177H149.291V29.4411Z" fill="#222840"/>
<path d="M86.9389 35.4305C88.8772 35.4305 90.2857 35.8097 91.1646 36.5681C92.0555 37.3146 92.5009 38.4703 92.5009 40.0353C92.5009 41.5884 92.0434 42.726 91.1285 43.4484C90.2255 44.1707 88.8411 44.5319 86.975 44.5319H85.2956V48.0532H82.4785V35.4305H86.9389ZM87.1917 42.094C88.1308 42.094 88.7688 41.9074 89.1059 41.5342C89.443 41.1489 89.6116 40.5952 89.6116 39.8728C89.6116 39.1385 89.3888 38.6208 88.9434 38.3198C88.51 38.0068 87.8298 37.8503 86.9028 37.8503H85.2956V42.094H87.1917Z" fill="#FD9CB9"/>
<path d="M103.639 41.6787C103.639 40.547 103.277 39.5839 102.555 38.7893C101.833 37.9948 100.942 37.5975 99.8824 37.5975C98.835 37.5975 97.9501 37.9948 97.2278 38.7893C96.5055 39.5839 96.1443 40.547 96.1443 41.6787C96.1443 42.7983 96.5055 43.7554 97.2278 44.5499C97.9501 45.3325 98.835 45.7237 99.8824 45.7237C100.942 45.7237 101.833 45.3325 102.555 44.5499C103.277 43.7554 103.639 42.7983 103.639 41.6787ZM104.596 46.3196C103.319 47.5597 101.748 48.1797 99.8824 48.1797C98.0163 48.1797 96.4453 47.5597 95.1691 46.3196C93.893 45.0676 93.255 43.5146 93.255 41.6606C93.255 39.8066 93.893 38.2596 95.1691 37.0196C96.4453 35.7676 98.0163 35.1415 99.8824 35.1415C101.748 35.1415 103.319 35.7676 104.596 37.0196C105.872 38.2596 106.51 39.8066 106.51 41.6606C106.51 43.5146 105.872 45.0676 104.596 46.3196Z" fill="#FD9CB9"/>
<path d="M112.635 35.4305C114.886 35.4305 116.614 35.9843 117.817 37.0918C119.021 38.1874 119.623 39.7163 119.623 41.6787C119.623 43.641 119.033 45.194 117.854 46.3377C116.686 47.4814 114.898 48.0532 112.49 48.0532H108.174V35.4305H112.635ZM112.779 45.5612C114.067 45.5612 115.054 45.2361 115.741 44.586C116.439 43.9359 116.788 42.9909 116.788 41.7509C116.788 40.5109 116.439 39.5598 115.741 38.8977C115.054 38.2235 113.995 37.8864 112.562 37.8864H110.991V45.5612H112.779Z" fill="#FD9CB9"/>
<path d="M127.127 45.5612C128.512 45.5612 129.644 45.0134 130.522 43.9179L132.328 45.7779C130.896 47.3911 129.204 48.1977 127.254 48.1977C125.316 48.1977 123.714 47.5837 122.45 46.3558C121.198 45.1278 120.572 43.5808 120.572 41.7148C120.572 39.8367 121.21 38.2717 122.486 37.0196C123.775 35.7676 125.346 35.1415 127.2 35.1415C129.27 35.1415 131.004 35.9301 132.4 37.5072L130.649 39.4936C129.758 38.386 128.65 37.8322 127.326 37.8322C126.267 37.8322 125.358 38.1814 124.599 38.8796C123.853 39.5658 123.48 40.4988 123.48 41.6787C123.48 42.8464 123.835 43.7855 124.545 44.4958C125.255 45.2061 126.116 45.5612 127.127 45.5612Z" fill="#FD9CB9"/>
<path d="M142.74 48.0532L141.566 45.3264H136.275L135.101 48.0532H132.103L137.557 35.4305H140.284L145.737 48.0532H142.74ZM138.929 39.1866L137.34 42.8524H140.5L138.929 39.1866Z" fill="#FD9CB9"/>
<path d="M150.455 37.6155C149.985 37.6155 149.612 37.7299 149.335 37.9586C149.07 38.1753 148.938 38.4703 148.938 38.8435C148.938 39.2047 149.1 39.4936 149.425 39.7103C149.762 39.927 150.527 40.1858 151.719 40.4868C152.923 40.7757 153.856 41.2152 154.518 41.8051C155.18 42.395 155.511 43.2558 155.511 44.3874C155.511 45.5191 155.084 46.44 154.229 47.1503C153.386 47.8486 152.273 48.1977 150.888 48.1977C148.89 48.1977 147.09 47.4573 145.489 45.9765L147.168 43.9179C148.529 45.1097 149.787 45.7057 150.942 45.7057C151.46 45.7057 151.863 45.5973 152.152 45.3806C152.453 45.1519 152.604 44.8509 152.604 44.4777C152.604 44.0925 152.447 43.7915 152.134 43.5748C151.821 43.346 151.201 43.1173 150.274 42.8886C148.805 42.5394 147.728 42.088 147.042 41.5342C146.368 40.9684 146.03 40.0895 146.03 38.8977C146.03 37.6938 146.458 36.7668 147.313 36.1167C148.179 35.4666 149.257 35.1415 150.545 35.1415C151.388 35.1415 152.23 35.286 153.073 35.5749C153.916 35.8639 154.65 36.2732 155.276 36.8029L153.85 38.8616C152.754 38.0309 151.623 37.6155 150.455 37.6155Z" fill="#FD9CB9"/>
<path d="M162.424 37.8683V48.0532H159.607V37.8683H156.032V35.4305H166V37.8683H162.424Z" fill="#FD9CB9"/>
</svg>
