<?xml version="1.0" standalone="no"?>
<!DOCTYPE svg PUBLIC "-//W3C//DTD SVG 20010904//EN"
 "http://www.w3.org/TR/2001/REC-SVG-20010904/DTD/svg10.dtd">
<svg version="1.0" xmlns="http://www.w3.org/2000/svg"
 width="361.000000pt" height="361.000000pt" viewBox="0 0 361.000000 361.000000"
 preserveAspectRatio="xMidYMid meet">
<metadata>
Created by potrace 1.11, written by Peter Selinger 2001-2013
</metadata>
<g transform="translate(0.000000,361.000000) scale(0.100000,-0.100000)"
fill="#000000" stroke="none">
<path d="M2174 3119 c-28 -10 -56 -47 -144 -194 -67 -110 -259 -441 -325 -560
-159 -287 -280 -506 -320 -580 -26 -49 -64 -121 -85 -160 -21 -38 -63 -119
-95 -179 -183 -351 -373 -601 -536 -706 -140 -90 -254 -80 -300 28 -39 88 -8
277 82 509 51 131 201 433 308 621 45 78 81 146 81 151 0 5 4 11 8 13 18 7
264 456 306 558 82 201 66 407 -38 478 -36 24 -77 23 -107 -4 -23 -21 -305
-458 -373 -579 -6 -11 -43 -74 -83 -140 -276 -466 -470 -881 -523 -1118 -22
-101 -30 -236 -19 -307 17 -102 21 -118 56 -188 40 -82 125 -168 210 -214 187
-100 428 -96 641 11 183 92 331 238 494 486 37 56 147 234 168 270 10 17 55
95 102 175 46 80 87 152 91 160 4 8 16 29 26 46 10 17 35 60 54 95 19 35 50
93 70 129 108 196 274 525 336 662 67 150 86 354 43 450 -19 43 -66 90 -95 94
-6 1 -22 -2 -33 -7z"/>
<path d="M2402 2194 c-59 -59 -303 -461 -465 -764 -121 -226 -207 -421 -230
-522 -17 -78 -20 -197 -4 -242 27 -81 106 -166 154 -166 33 0 65 41 107 136
70 158 241 496 309 610 105 177 199 296 357 452 118 116 324 262 343 243 11
-11 -14 -59 -100 -199 -148 -239 -237 -412 -306 -597 -65 -172 -81 -336 -44
-442 22 -62 84 -131 147 -163 77 -39 207 -54 319 -36 236 38 534 290 598 506
33 113 14 226 -42 252 -49 22 -69 5 -143 -120 -168 -282 -351 -472 -457 -472
-31 0 -71 39 -78 77 -9 50 0 139 22 208 31 95 134 304 221 450 98 162 197 352
214 407 40 133 -29 310 -142 364 -108 51 -294 -23 -511 -204 -40 -34 -76 -62
-80 -62 -3 0 -6 33 -6 73 -1 119 -53 228 -118 243 -23 5 -33 0 -65 -32z"/>
</g>
</svg>
