<svg xmlns="http://www.w3.org/2000/svg" viewBox="0 0 138.41 38.22"><defs><style>.cls-1{fill:#a6a6a6;}.cls-2{fill:#fff;}.cls-3{fill:#1ed760;}</style></defs><title>podcast-badge-spotify</title><g id="Layer_2" data-name="Layer 2"><g id="Layer_1-2" data-name="Layer 1"><path class="cls-1" d="M129.31,0H7.19A13.83,13.83,0,0,0,5.27.18a6.42,6.42,0,0,0-1.81.6A6,6,0,0,0,1.91,1.91,5.93,5.93,0,0,0,.78,3.46,6.47,6.47,0,0,0,.19,5.28,12.23,12.23,0,0,0,0,7.19c0,.29,0,.59,0,.88V30.15c0,.3,0,.59,0,.89A12.23,12.23,0,0,0,.19,33a6.47,6.47,0,0,0,.59,1.82,5.88,5.88,0,0,0,1.13,1.54,5.77,5.77,0,0,0,1.55,1.13,6.42,6.42,0,0,0,1.81.6,13.83,13.83,0,0,0,1.92.17h124a13.42,13.42,0,0,0,1.91-.17,6.66,6.66,0,0,0,1.83-.6A6.1,6.1,0,0,0,138.22,33,12.23,12.23,0,0,0,138.4,31v-.89c0-.34,0-.69,0-1v-20c0-.35,0-.7,0-1V7.19a12.23,12.23,0,0,0-.18-1.91,6.08,6.08,0,0,0-1.72-3.37A6.12,6.12,0,0,0,135,.78a6.66,6.66,0,0,0-1.83-.6A13.42,13.42,0,0,0,131.22,0h-1.91Z"/><path class="cls-2" d="M8.07,37.38H7.21a11.57,11.57,0,0,1-1.79-.15,5.65,5.65,0,0,1-1.58-.53,4.94,4.94,0,0,1-1.34-1,5,5,0,0,1-1-1.33A5.34,5.34,0,0,1,1,32.81,11.27,11.27,0,0,1,.85,31c0-.2,0-.87,0-.87V8.07s0-.66,0-.86A10.85,10.85,0,0,1,1,5.43a5.31,5.31,0,0,1,.52-1.59,5.16,5.16,0,0,1,1-1.34,5.44,5.44,0,0,1,1.34-1A5.75,5.75,0,0,1,5.42,1,12.2,12.2,0,0,1,7.21.85h124A12.18,12.18,0,0,1,133,1a5.72,5.72,0,0,1,1.59.53,5.28,5.28,0,0,1,1.33,1,5.44,5.44,0,0,1,1,1.34,5.56,5.56,0,0,1,.51,1.57,12.71,12.71,0,0,1,.17,1.81v.85c0,.36,0,.7,0,1v20c0,.35,0,.69,0,1V31a12.17,12.17,0,0,1-.17,1.77,5.49,5.49,0,0,1-.51,1.59,5.42,5.42,0,0,1-1,1.33,5.27,5.27,0,0,1-1.34,1,5.83,5.83,0,0,1-1.59.53,11.57,11.57,0,0,1-1.79.15H8.07Z"/><path class="cls-3" d="M19.39,6.58A12.53,12.53,0,1,0,31.92,19.11,12.53,12.53,0,0,0,19.39,6.58Zm5.75,18.07a.78.78,0,0,1-1.08.26c-2.94-1.8-6.64-2.2-11-1.21a.77.77,0,0,1-.93-.58.78.78,0,0,1,.58-.94c4.77-1.09,8.87-.62,12.17,1.4A.78.78,0,0,1,25.14,24.65Zm1.53-3.41a1,1,0,0,1-1.34.32A16.43,16.43,0,0,0,12.85,20.1a1,1,0,1,1-.57-1.87A18.26,18.26,0,0,1,26.35,19.9,1,1,0,0,1,26.67,21.24Zm.13-3.55c-4-2.4-10.69-2.62-14.55-1.45A1.17,1.17,0,0,1,11.57,14C16,12.66,23.35,12.92,28,15.67a1.17,1.17,0,0,1-1.2,2Z"/><path d="M43.74,21.82c-2.4-.58-2.83-1-2.83-1.82s.75-1.34,1.87-1.34a5.47,5.47,0,0,1,3.28,1.25.13.13,0,0,0,.12,0,.17.17,0,0,0,.1-.06l1.18-1.66a.17.17,0,0,0,0-.21,7.08,7.08,0,0,0-4.62-1.6c-2.59,0-4.4,1.56-4.4,3.78,0,2.39,1.56,3.24,4.26,3.89,2.3.53,2.69,1,2.69,1.77s-.79,1.42-2,1.42a5.5,5.5,0,0,1-3.82-1.58.19.19,0,0,0-.12,0,.24.24,0,0,0-.11.06L38,27.27a.16.16,0,0,0,0,.22,7.84,7.84,0,0,0,5.3,2c2.79,0,4.6-1.53,4.6-3.89C47.86,23.63,46.66,22.53,43.74,21.82Z"/><path d="M54.18,19.45a3.78,3.78,0,0,0-3,1.45V19.8a.16.16,0,0,0-.16-.15H48.85a.16.16,0,0,0-.16.15V32a.16.16,0,0,0,.16.16H51a.16.16,0,0,0,.16-.16V28.17a3.86,3.86,0,0,0,3,1.37c2.25,0,4.53-1.73,4.53-5.05S56.43,19.45,54.18,19.45Zm2,5a2.6,2.6,0,0,1-2.53,2.87,2.67,2.67,0,0,1-2.58-2.87,2.67,2.67,0,0,1,2.58-2.86A2.62,2.62,0,0,1,56.21,24.49Z"/><path d="M64.55,19.45a5.06,5.06,0,1,0,5.15,5A5.07,5.07,0,0,0,64.55,19.45Zm0,7.93a2.74,2.74,0,0,1-2.7-2.89,2.67,2.67,0,0,1,2.66-2.84,2.75,2.75,0,0,1,2.73,2.88A2.68,2.68,0,0,1,64.55,27.38Z"/><path d="M75.89,19.65H73.52V17.23a.16.16,0,0,0-.15-.16H71.22a.16.16,0,0,0-.16.16v2.42H70a.15.15,0,0,0-.15.15v1.85a.16.16,0,0,0,.15.16h1v4.78c0,1.93,1,2.91,2.86,2.91a3.82,3.82,0,0,0,2-.5.14.14,0,0,0,.08-.13V27.11a.17.17,0,0,0-.07-.14.15.15,0,0,0-.16,0,2.78,2.78,0,0,1-1.26.3c-.69,0-1-.31-1-1V21.81h2.37a.16.16,0,0,0,.16-.16V19.8A.16.16,0,0,0,75.89,19.65Z"/><path d="M84.14,19.66v-.3c0-.88.33-1.27,1.08-1.27a3.57,3.57,0,0,1,1.22.23.17.17,0,0,0,.14,0,.16.16,0,0,0,.06-.13V16.36a.16.16,0,0,0-.11-.16A6.19,6.19,0,0,0,84.74,16c-2,0-3,1.12-3,3.23v.46h-1a.15.15,0,0,0-.15.15v1.86a.16.16,0,0,0,.15.16h1v7.38a.15.15,0,0,0,.15.15H84a.16.16,0,0,0,.16-.15V21.81h2l3.08,7.37c-.35.78-.7.93-1.17.93a2.52,2.52,0,0,1-1.18-.33.15.15,0,0,0-.13,0,.14.14,0,0,0-.09.08L86,31.45a.16.16,0,0,0,.07.2,4.46,4.46,0,0,0,2.3.59c1.58,0,2.46-.74,3.24-2.73l3.73-9.64a.16.16,0,0,0,0-.15.16.16,0,0,0-.13-.06H92.91a.18.18,0,0,0-.15.1l-2.29,6.55L88,19.76a.16.16,0,0,0-.15-.1Z"/><rect x="77.05" y="19.65" width="2.47" height="9.7" rx="0.16" ry="0.16"/><path d="M78.29,15.37a1.55,1.55,0,1,0,1.54,1.55A1.54,1.54,0,0,0,78.29,15.37Z"/><path d="M97.13,22.66a1.5,1.5,0,0,1-1.51-1.51,1.52,1.52,0,0,1,1.52-1.52,1.5,1.5,0,0,1,1.51,1.51A1.52,1.52,0,0,1,97.13,22.66Zm0-2.88a1.37,1.37,0,1,0,1.36,1.36A1.35,1.35,0,0,0,97.14,19.78Zm.34,1.52.42.6h-.36l-.38-.55h-.33v.55h-.31V20.31h.71c.37,0,.62.19.62.5A.5.5,0,0,1,97.48,21.3Zm-.26-.72h-.39v.5h.39c.2,0,.32-.09.32-.25S97.42,20.58,97.22,20.58Z"/><path d="M38.78,14.59V9.34h.67V14h2.28v.64Z"/><path d="M43.34,10.07a.42.42,0,0,1-.34.14.48.48,0,0,1-.47-.47.44.44,0,0,1,.14-.34A.45.45,0,0,1,43,9.26a.46.46,0,0,1,.34.14.48.48,0,0,1,.14.34A.45.45,0,0,1,43.34,10.07Zm0,4.5h-.67V11h.67Z"/><path d="M45.85,14.69a1.64,1.64,0,0,1-1-.29,1.67,1.67,0,0,1-.58-.74l.6-.25a1,1,0,0,0,1,.68.88.88,0,0,0,.51-.14.43.43,0,0,0,.21-.37c0-.23-.17-.39-.49-.48l-.73-.17a1.63,1.63,0,0,1-.65-.34.78.78,0,0,1-.31-.66.89.89,0,0,1,.42-.77,1.67,1.67,0,0,1,1-.3,1.61,1.61,0,0,1,.85.22,1.22,1.22,0,0,1,.54.62l-.59.24a.8.8,0,0,0-.82-.48.92.92,0,0,0-.51.13.38.38,0,0,0-.2.33c0,.21.16.35.47.42l.72.17a1.35,1.35,0,0,1,.74.4,1,1,0,0,1,.25.65,1,1,0,0,1-.4.81A1.58,1.58,0,0,1,45.85,14.69Z"/><path d="M49.66,14.63a1.17,1.17,0,0,1-.86-.3,1.14,1.14,0,0,1-.29-.85V11.59h-.64V11h.64V9.88h.67V11h.88v.61h-.88v1.84c0,.39.16.58.48.58A.87.87,0,0,0,50,14l.24.57A1.29,1.29,0,0,1,49.66,14.63Z"/><path d="M52.59,14.69a1.73,1.73,0,0,1-1.32-.54,2,2,0,0,1-.51-1.38,2,2,0,0,1,.49-1.35,1.62,1.62,0,0,1,1.27-.56,1.65,1.65,0,0,1,1.28.52,2,2,0,0,1,.48,1.39v.13H51.43a1.24,1.24,0,0,0,.36.86,1.13,1.13,0,0,0,.79.31,1,1,0,0,0,1-.61l.6.25a1.62,1.62,0,0,1-.58.7A1.75,1.75,0,0,1,52.59,14.69Zm1-2.35a1,1,0,0,0-.28-.59,1.06,1.06,0,0,0-.78-.27,1,1,0,0,0-.65.23,1.18,1.18,0,0,0-.37.63Z"/><path d="M55.83,11v.5h0a1.15,1.15,0,0,1,.46-.44,1.36,1.36,0,0,1,.68-.18,1.3,1.3,0,0,1,1,.41,1.65,1.65,0,0,1,.35,1.1v2.2H57.7v-2.1c0-.66-.3-1-.89-1a.82.82,0,0,0-.68.33,1.19,1.19,0,0,0-.27.77v2h-.67V11Z"/><path d="M61.68,11.41a1.88,1.88,0,0,1,2.66,0,2.05,2.05,0,0,1,0,2.73,1.88,1.88,0,0,1-2.66,0,1.89,1.89,0,0,1-.52-1.37A1.88,1.88,0,0,1,61.68,11.41Zm.5,2.31a1.15,1.15,0,0,0,1.65,0,1.45,1.45,0,0,0,0-1.89,1.15,1.15,0,0,0-1.65,0,1.45,1.45,0,0,0,0,1.89Z"/><path d="M66.34,11v.5h0a1.09,1.09,0,0,1,.46-.44,1.32,1.32,0,0,1,.67-.18,1.27,1.27,0,0,1,1,.41,1.6,1.6,0,0,1,.36,1.1v2.2H68.2v-2.1c0-.66-.29-1-.89-1a.83.83,0,0,0-.68.33,1.23,1.23,0,0,0-.26.77v2h-.68V11Z"/></g></g></svg>